PathFileType	4	(X/Y/Z)	 control3min.trc
DataRate	CameraRate	NumFrames	NumMarkers	Units	OrigDataRate	OrigDataStartFrame	OrigNumFrames
200	200	9	35	m	200	251	1000
Frame#	Time	C7			LSH			RSH			MAN			RASI			LASI			HIPR			HIPL			RPSI			LPSI			COX			RTHI1			RTHI2			RTHI3			RTHI4			RSHA1			RSHA2			RSHA3			RSHA4			RHEEL			RMET5			RMET1			RTOE			LTHI1			LTHI2			LTHI3			LTHI4			LSHA1			LSHA2			LSHA3			LSHA4			LHEEL			LMET5			LMET1			LTOE			
		X1	Y1	Z1	X2	Y2	Z2	X3	Y3	Z3	X4	Y4	Z4	X5	Y5	Z5	X6	Y6	Z6	X7	Y7	Z7	X8	Y8	Z8	X9	Y9	Z9	X10	Y10	Z10	X11	Y11	Z11	X12	Y12	Z12	X13	Y13	Z13	X14	Y14	Z14	X15	Y15	Z15	X16	Y16	Z16	X17	Y17	Z17	X18	Y18	Z18	X19	Y19	Z19	X20	Y20	Z20	X21	Y21	Z21	X22	Y22	Z22	X23	Y23	Z23	X24	Y24	Z24	X25	Y25	Z25	X26	Y26	Z26	X27	Y27	Z27	X28	Y28	Z28	X29	Y29	Z29	X30	Y30	Z30	X31	Y31	Z31	X32	Y32	Z32	X33	Y33	Z33	X34	Y34	Z34	X35	Y35	Z35	
251	1.2550	-0.270150	1.294154	-0.564358	-0.242805	1.255271	-0.742224	-0.218496	1.267346	-0.387468	-0.154713	1.243147	-0.570185	-0.138392	0.866727	-0.473272	-0.143170	0.875093	-0.658365	-0.210383	0.900324	-0.424839	-0.217673	0.911322	-0.695347	-0.289592	0.885878	-0.496828	-0.293504	0.890317	-0.608531	-0.295390	0.902173	-0.555298	-0.206097	0.685606	-0.399139	-0.180080	0.631766	-0.397350	-0.121118	0.655313	-0.409954	-0.139377	0.713952	-0.411827	-0.197884	0.279029	-0.385145	-0.227146	0.246819	-0.383014	-0.182992	0.213531	-0.408411	-0.159419	0.246529	-0.412607	-0.380687	0.064644	-0.425126	-0.225240	0.028439	-0.366152	-0.195004	0.032348	-0.446233	-0.168491	0.024540	-0.438658	-0.190263	0.656509	-0.737195	-0.161341	0.601992	-0.736579	-0.102549	0.626607	-0.723247	-0.123966	0.682466	-0.723122	-0.226960	0.270741	-0.728701	-0.252438	0.239640	-0.724469	-0.199340	0.205293	-0.720651	-0.179676	0.244593	-0.726592	-0.363824	0.082229	-0.667007	-0.219220	0.025345	-0.738101	-0.181317	0.032412	-0.662933	-0.157778	0.023445	-0.671139	
252	1.2600	-0.270202	1.293717	-0.564301	-0.242930	1.254461	-0.742249	-0.218670	1.266500	-0.387332	-0.154862	1.242342	-0.570094	-0.138337	0.866865	-0.473358	-0.143121	0.875294	-0.658329	-0.210376	0.900377	-0.424728	-0.217931	0.911163	-0.695282	-0.289599	0.885432	-0.496698	-0.293557	0.889801	-0.608381	-0.295448	0.901692	-0.555167	-0.205746	0.685235	-0.399146	-0.179724	0.631375	-0.397505	-0.120784	0.654934	-0.410230	-0.139058	0.713597	-0.411962	-0.197871	0.278458	-0.385191	-0.227138	0.246341	-0.383165	-0.183090	0.213094	-0.408626	-0.159539	0.246021	-0.412840	-0.380854	0.064178	-0.424834	-0.225238	0.028432	-0.366075	-0.195093	0.032345	-0.446228	-0.168562	0.024552	-0.438631	-0.189918	0.656372	-0.737315	-0.160991	0.601863	-0.736696	-0.102216	0.626473	-0.723318	-0.123623	0.682327	-0.723190	-0.226762	0.270354	-0.729076	-0.252242	0.239253	-0.724859	-0.199145	0.204926	-0.720753	-0.179476	0.244226	-0.726737	-0.363882	0.082122	-0.667418	-0.219173	0.025325	-0.738260	-0.181366	0.032424	-0.663003	-0.157803	0.023446	-0.671177	
253	1.2650	-0.270317	1.293818	-0.564268	-0.243059	1.254224	-0.742283	-0.218920	1.266219	-0.387207	-0.155045	1.242163	-0.570017	-0.138149	0.867424	-0.473399	-0.142867	0.875955	-0.658203	-0.210238	0.900850	-0.424672	-0.217829	0.911529	-0.695197	-0.289486	0.885445	-0.496603	-0.293430	0.889804	-0.608304	-0.295353	0.901724	-0.555086	-0.205311	0.685367	-0.399016	-0.179325	0.631475	-0.397586	-0.120394	0.654997	-0.410505	-0.138650	0.713681	-0.412107	-0.197924	0.278106	-0.385113	-0.227133	0.246054	-0.383130	-0.183175	0.212953	-0.408799	-0.159711	0.245831	-0.413008	-0.380929	0.063944	-0.424395	-0.225192	0.028420	-0.365971	-0.195177	0.032344	-0.446200	-0.168633	0.024557	-0.438617	-0.189572	0.656801	-0.737464	-0.160782	0.602225	-0.736850	-0.101957	0.626680	-0.723422	-0.123217	0.682580	-0.723275	-0.226852	0.270149	-0.729579	-0.252297	0.239027	-0.725385	-0.199150	0.204782	-0.720965	-0.179530	0.244108	-0.726994	-0.363961	0.082063	-0.667969	-0.219113	0.025298	-0.738466	-0.181442	0.032454	-0.663106	-0.157855	0.023448	-0.671232	
254	1.2700	-0.270491	1.294441	-0.564261	-0.243193	1.254554	-0.742324	-0.219262	1.266516	-0.387100	-0.155262	1.242607	-0.569948	-0.137832	0.868382	-0.473385	-0.142431	0.877064	-0.657998	-0.210005	0.901681	-0.424650	-0.217429	0.912397	-0.695084	-0.289258	0.885925	-0.496544	-0.293126	0.890335	-0.608282	-0.295099	0.902255	-0.555045	-0.204814	0.686016	-0.398771	-0.178912	0.632080	-0.397592	-0.119972	0.655515	-0.410762	-0.138178	0.714221	-0.412261	-0.198065	0.278045	-0.384927	-0.227179	0.246009	-0.382915	-0.183291	0.213107	-0.408907	-0.159930	0.246001	-0.413111	-0.380931	0.063959	-0.423909	-0.225113	0.028403	-0.365858	-0.195243	0.032341	-0.446155	-0.168699	0.024556	-0.438616	-0.189249	0.657774	-0.737647	-0.160717	0.603074	-0.737042	-0.101787	0.627236	-0.723551	-0.122786	0.683228	-0.723372	-0.227225	0.270181	-0.730174	-0.252607	0.238997	-0.725993	-0.199369	0.204898	-0.721279	-0.179840	0.244276	-0.727352	-0.364045	0.082086	-0.668603	-0.219050	0.025265	-0.738693	-0.181534	0.032494	-0.663234	-0.157928	0.023452	-0.671301	
255	1.2750	-0.270720	1.295567	-0.564281	-0.243336	1.255441	-0.742364	-0.219704	1.267398	-0.387001	-0.155525	1.243667	-0.569873	-0.137394	0.869693	-0.473313	-0.141834	0.878600	-0.657722	-0.209692	0.902833	-0.424638	-0.216782	0.913783	-0.694937	-0.288924	0.886883	-0.496525	-0.292678	0.891415	-0.608311	-0.294715	0.903293	-0.555031	-0.204285	0.687188	-0.398442	-0.178514	0.633171	-0.397536	-0.119542	0.656463	-0.410987	-0.137666	0.715216	-0.412425	-0.198318	0.278325	-0.384644	-0.227317	0.246283	-0.382544	-0.183447	0.213613	-0.408939	-0.160220	0.246547	-0.413129	-0.380859	0.064220	-0.423420	-0.225009	0.028382	-0.365751	-0.195286	0.032340	-0.446099	-0.168752	0.024552	-0.438628	-0.188976	0.659260	-0.737868	-0.160800	0.604388	-0.737280	-0.101725	0.628153	-0.723704	-0.122371	0.684278	-0.723484	-0.227889	0.270482	-0.730811	-0.253170	0.239208	-0.726631	-0.199806	0.205318	-0.721694	-0.180413	0.244771	-0.727810	-0.364115	0.082206	-0.669268	-0.218988	0.025232	-0.738922	-0.181630	0.032542	-0.663380	-0.158015	0.023462	-0.671379	
256	1.2800	-0.270996	1.297180	-0.564323	-0.243490	1.256866	-0.742400	-0.220242	1.268874	-0.386874	-0.155818	1.245314	-0.569792	-0.136857	0.871352	-0.473192	-0.141100	0.880542	-0.657388	-0.209314	0.904324	-0.424617	-0.215899	0.915698	-0.694763	-0.288481	0.888325	-0.496554	-0.292103	0.893045	-0.608390	-0.294223	0.904838	-0.555067	-0.203761	0.688863	-0.398076	-0.178150	0.634758	-0.397408	-0.119120	0.657867	-0.411153	-0.137143	0.716663	-0.412581	-0.198722	0.278980	-0.384276	-0.227596	0.246919	-0.382047	-0.183678	0.214493	-0.408860	-0.160606	0.247493	-0.413031	-0.380735	0.064785	-0.423017	-0.224886	0.028359	-0.365655	-0.195305	0.032340	-0.446031	-0.168789	0.024546	-0.438656	-0.188779	0.661226	-0.738129	-0.161021	0.606150	-0.737561	-0.101780	0.629453	-0.723884	-0.122012	0.685725	-0.723614	-0.228832	0.271084	-0.731453	-0.253973	0.239690	-0.727261	-0.200443	0.206058	-0.722185	-0.181231	0.245609	-0.728350	-0.364152	0.082455	-0.669917	-0.218930	0.025198	-0.739138	-0.181721	0.032594	-0.663537	-0.158109	0.023476	-0.671466	
257	1.2850	-0.271309	1.299257	-0.564381	-0.243656	1.258803	-0.742423	-0.220880	1.270909	-0.386758	-0.156134	1.247516	-0.569704	-0.136245	0.873367	-0.473037	-0.140252	0.882866	-0.657009	-0.208862	0.906176	-0.424572	-0.214795	0.918160	-0.694575	-0.287941	0.890268	-0.496630	-0.291408	0.895202	-0.608515	-0.293628	0.906882	-0.555144	-0.203257	0.691020	-0.397693	-0.177839	0.636822	-0.397212	-0.118757	0.659708	-0.411247	-0.136631	0.718555	-0.412718	-0.199308	0.280047	-0.383816	-0.228052	0.247948	-0.381449	-0.184004	0.215766	-0.408643	-0.161108	0.248865	-0.412789	-0.380548	0.065616	-0.422656	-0.224744	0.028333	-0.365573	-0.195294	0.032336	-0.445951	-0.168807	0.024540	-0.438695	-0.188681	0.663633	-0.738423	-0.161373	0.608338	-0.737884	-0.101961	0.631146	-0.724092	-0.121751	0.687577	-0.723769	-0.230020	0.272010	-0.732069	-0.254994	0.240468	-0.727852	-0.201259	0.207141	-0.722743	-0.182278	0.246804	-0.728954	-0.364136	0.082864	-0.670538	-0.218875	0.025168	-0.739331	-0.181800	0.032649	-0.663702	-0.158203	0.023494	-0.671557	
258	1.2900	-0.271646	1.301766	-0.564454	-0.243833	1.261220	-0.742429	-0.221606	1.273451	-0.386693	-0.156466	1.250234	-0.569609	-0.135579	0.875738	-0.472871	-0.139316	0.885550	-0.656600	-0.208326	0.908419	-0.424506	-0.213487	0.921149	-0.694379	-0.287320	0.892714	-0.496751	-0.290615	0.897871	-0.608672	-0.292955	0.909395	-0.555261	-0.202791	0.693652	-0.397300	-0.177603	0.639351	-0.396944	-0.118461	0.661978	-0.411284	-0.136146	0.720886	-0.412825	-0.200079	0.281562	-0.383228	-0.228696	0.249381	-0.380773	-0.184456	0.217450	-0.408252	-0.161748	0.250671	-0.412377	-0.380284	0.066721	-0.422349	-0.224586	0.028307	-0.365506	-0.195254	0.032332	-0.445858	-0.168811	0.024535	-0.438741	-0.188691	0.666448	-0.738742	-0.161840	0.610933	-0.738237	-0.102263	0.633245	-0.724331	-0.121608	0.689829	-0.723952	-0.231417	0.273280	-0.732647	-0.256189	0.241554	-0.728389	-0.202228	0.208585	-0.723365	-0.183510	0.248367	-0.729615	-0.364046	0.083471	-0.671124	-0.218821	0.025141	-0.739495	-0.181856	0.032706	-0.663875	-0.158291	0.023518	-0.671651	
259	1.2950	-0.272004	1.304688	-0.564535	-0.244023	1.264089	-0.742414	-0.222404	1.276456	-0.386668	-0.156811	1.253428	-0.569504	-0.134882	0.878468	-0.472713	-0.138317	0.888572	-0.656177	-0.207701	0.911093	-0.424430	-0.212052	0.924618	-0.694181	-0.286628	0.895653	-0.496915	-0.289747	0.901029	-0.608871	-0.292230	0.912366	-0.555410	-0.202380	0.696750	-0.396900	-0.177445	0.642334	-0.396607	-0.118243	0.664658	-0.411264	-0.135696	0.723637	-0.412896	-0.201075	0.283493	-0.382567	-0.229524	0.251201	-0.380058	-0.185044	0.219549	-0.407679	-0.162537	0.252898	-0.411773	-0.379914	0.068074	-0.422044	-0.224413	0.028285	-0.365452	-0.195189	0.032333	-0.445749	-0.168805	0.024533	-0.438787	-0.188814	0.669647	-0.739077	-0.162407	0.613910	-0.738609	-0.102673	0.635746	-0.724596	-0.121582	0.692471	-0.724155	-0.232977	0.274880	-0.733175	-0.257518	0.242976	-0.728873	-0.203319	0.210382	-0.724041	-0.184892	0.250289	-0.730320	-0.363866	0.084292	-0.671665	-0.218763	0.025122	-0.739629	-0.181885	0.032770	-0.664058	-0.158366	0.023546	-0.671747	
